<svg xmlns="http://www.w3.org/2000/svg" xmlns:xlink="http://www.w3.org/1999/xlink" version="1.1" x="0px" y="0px" viewBox="0 0 100 125" style="enable-background:new 0 0 100 100;" xml:space="preserve"><polygon style="" points="65.9,71.6 75.4,76.3 78.4,73.3 73.7,63.8 " fill="none"/><rect x="53.9" y="27.8" transform="matrix(0.7071 -0.7071 0.7071 0.7071 -17.0721 52.5457)" style="" width="1.9" height="38.3" fill="none"/><path d="M33.4,19.5c-2.8-2.8-7.1-3-9.6-0.5l-2.7,2.7c-2.5,2.5-2.3,6.8,0.5,9.6l1.4,1.4L34.8,21L33.4,19.5z"/><rect x="22.3" y="27.4" transform="matrix(0.7071 -0.7071 0.7071 0.7071 -11.1311 29.9159)" width="16.6" height="1.9"/><rect x="24.5" y="29.7" transform="matrix(0.7071 -0.7071 0.7071 0.7071 -12.0649 32.1704)" width="16.6" height="1.9"/><rect x="26.8" y="31.9" transform="matrix(0.7071 -0.7071 0.7071 0.7071 -12.9988 34.425)" width="16.6" height="1.9"/><path d="M61.4,70.9l0.5,0.2l11.5-11.5l-0.2-0.5L42.5,28.6L30.8,40.3L61.4,70.9z M69.1,59.7l-1.4,1.4L40.7,34l1.4-1.4L69.1,59.7z"/><rect x="19.2" y="81.1" width="2.5" height="1.7"/><rect x="23.4" y="81.1" width="7.5" height="1.7"/><path d="M84.9,82.1l-0.5-1l-4.6-9.3l-5.6-11.3L62.6,72.2l11.3,5.6l6.6,3.3H32.6v1.7h51.2h1.1C85,82.6,85.1,82.3,84.9,82.1z   M75.4,76.3l-9.5-4.7l7.8-7.8l4.7,9.5L75.4,76.3z"/><rect x="15" y="81.1" width="2.5" height="1.7"/><text x="0" y="115" fill="#000000" font-size="5px" font-weight="bold" font-family="'Helvetica Neue', Helvetica, Arial-Unicode, Arial, Sans-serif">Created by Hoeda</text><text x="0" y="120" fill="#000000" font-size="5px" font-weight="bold" font-family="'Helvetica Neue', Helvetica, Arial-Unicode, Arial, Sans-serif">from the Noun Project</text></svg>