<?xml version="1.0" encoding="UTF-8"?>
<svg width="64px" height="96px" viewBox="0 0 64 96" version="1.1" xmlns="http://www.w3.org/2000/svg" xmlns:xlink="http://www.w3.org/1999/xlink">
    <!-- Generator: Sketch 59.1 (86144) - https://sketch.com -->
    <title>Shape</title>
    <desc>Created with Sketch.</desc>
    <g id="Page-1" stroke="none" stroke-width="1" fill="none" fill-rule="evenodd">
        <g id="share_icon" transform="translate(0.750000, 0.083333)" fill="#FFFFFF" fill-rule="nonzero">
            <path d="M52.0833333,95.8333333 L10.4166667,95.8333333 C4.6625,95.8333333 0,91.1708333 0,85.4166667 L0,47.9166667 C0,42.1645833 4.6625,37.5 10.4166667,37.5 L18.75,37.5 C19.9020833,37.5 20.8333333,38.4333333 20.8333333,39.5833333 C20.8333333,40.7333333 19.9020833,41.6666667 18.75,41.6666667 L10.4166667,41.6666667 C6.96666667,41.6666667 4.16666667,44.4666667 4.16666667,47.9166667 L4.16666667,85.4166667 C4.16666667,88.86875 6.96666667,91.6666667 10.4166667,91.6666667 L52.0833333,91.6666667 C55.5354167,91.6666667 58.3333333,88.86875 58.3333333,85.4166667 L58.3333333,47.9166667 C58.3333333,44.4666667 55.5354167,41.6666667 52.0833333,41.6666667 L43.75,41.6666667 C42.5979167,41.6666667 41.6666667,40.7333333 41.6666667,39.5833333 C41.6666667,38.4333333 42.5979167,37.5 43.75,37.5 L52.0833333,37.5 C57.8375,37.5 62.5,42.1645833 62.5,47.9166667 L62.5,85.4166667 C62.5,91.1708333 57.8375,95.8333333 52.0833333,95.8333333 Z M46.5291667,20.2395833 L33.3333333,7.04375 L33.3333333,60.4166667 C33.3333333,61.56875 32.4020833,62.5 31.25,62.5 C30.0979167,62.5 29.1666667,61.56875 29.1666667,60.4166667 L29.1666667,7.04375 L15.9708333,20.2395833 C15.1770833,21.0333333 13.8895833,21.0333333 13.09375,20.2395833 C12.3,19.4458333 12.3,18.15625 13.09375,17.3625 L29.5625,0.89375 C29.6291667,0.795833333 29.6729167,0.683333333 29.7604167,0.59375 C30.1666667,0.189583333 30.7,-0.00416666667 31.2291667,0.00416666667 C31.2375,0.00416666667 31.2416667,0 31.25,0 C31.2583333,0 31.2645833,0.00416666667 31.2708333,0.00416666667 C31.8041667,-0.00208333333 32.3354167,0.189583333 32.7395833,0.59375 C32.825,0.68125 32.8645833,0.789583333 32.9291667,0.885416667 L49.40625,17.3625 C50.2,18.15625 50.2,19.4458333 49.40625,20.2395833 C48.6104167,21.0333333 47.3229167,21.0333333 46.5291667,20.2395833 Z" id="Shape"></path>
        </g>
    </g>
</svg>